<svg xmlns="http://www.w3.org/2000/svg" width="34" height="35" fill="none"><rect id="backgroundrect" width="100%" height="100%" x="0" y="0" fill="none" stroke="none"/>


<g class="currentLayer" style=""><title>Layer 1</title><circle cx="16.636835558383837" cy="16.72743918183528" r="13.861124992370605" fill="#F53838" id="svg_1" class=""/><path d="M16.799999999999997,1.2336269130859367 C7.521500000000003,1.2336269130859367 0,8.755130913085935 0,18.03366091308594 C0,27.312160913085933 7.521500000000003,34.833660913085936 16.799999999999997,34.833660913085936 C26.07849999999999,34.833660913085936 33.599999999999994,27.312160913085933 33.599999999999994,18.03366091308594 C33.599999999999994,8.755130913085935 26.07849999999999,1.2336269130859367 16.799999999999997,1.2336269130859367 zM20.7795,12.843160913085939 H18.2543 C17.955,12.843160913085939 17.622500000000002,13.236860913085938 17.622500000000002,13.76016091308594 V15.583660913085936 H20.7813 L20.3035,18.184160913085936 H17.622500000000002 V25.99086091308594 H14.642299999999999 V18.184160913085936 H11.938499999999998 V15.583660913085936 H14.642299999999999 V14.054160913085937 C14.642299999999999,11.85966091308594 16.1648,10.076380913085938 18.2543,10.076380913085938 H20.7795 V12.843160913085939 z" fill="white" id="svg_2" class="selected" stroke="none"/></g></svg>