<svg xmlns="http://www.w3.org/2000/svg" width="35" height="35" fill="none"><rect id="backgroundrect" width="100%" height="100%" x="0" y="0" fill="none" stroke="none"/>


<g class="currentLayer" style=""><title>Layer 1</title><circle cx="17.604080825387882" cy="16.68662366336639" r="13.657042503356934" fill="#F53838" id="svg_1" class=""/><path d="M17.481630706787108,0.6621986141357423 C8.203110706787108,0.6621986141357423 0.6816067067871074,8.183702614135742 0.6816067067871074,17.462232614135743 C0.6816067067871074,26.74073261413574 8.203110706787108,34.26223261413574 17.481630706787108,34.26223261413574 C26.76013070678711,34.26223261413574 34.28163070678711,26.74073261413574 34.28163070678711,17.462232614135743 C34.28163070678711,8.183702614135742 26.76013070678711,0.6621986141357423 17.481630706787108,0.6621986141357423 zM24.31533070678711,14.424232614135743 C24.322330706787113,14.567732614135743 24.324130706787116,14.711232614135742 24.324130706787116,14.851232614135743 C24.324130706787116,19.226232614135743 20.99733070678711,24.26793261413574 14.91083070678711,24.26793261413574 C13.112330706787105,24.27093261413574 11.35133070678711,23.75443261413574 9.839360706787119,22.78043261413574 C10.09663070678711,22.811932614135742 10.360830706787112,22.82423261413574 10.628630706787106,22.82423261413574 C12.179130706787106,22.82423261413574 13.605330706787107,22.297432614135744 14.737630706787108,21.40843261413574 C14.04763070678711,21.394932614135744 13.379030706787105,21.166432614135744 12.82503070678711,20.754832614135744 C12.271030706787108,20.343332614135743 11.859330706787105,19.769132614135742 11.64713070678711,19.11243261413574 C12.14263070678711,19.206632614135742 12.65313070678711,19.186932614135742 13.139830706787109,19.05473261413574 C12.39093070678711,18.903232614135742 11.717430706787113,18.497432614135743 11.23363070678711,17.906132614135743 C10.749730706787112,17.314732614135742 10.48533070678711,16.57423261413574 10.48513070678711,15.810232614135742 V15.76993261413574 C10.931330706787108,16.01673261413574 11.44233070678711,16.16723261413574 11.984830706787108,16.184732614135743 C11.282730706787106,15.717332614135742 10.785730706787106,14.999332614135742 10.595430706787113,14.177732614135742 C10.405130706787105,13.356032614135742 10.535930706787113,12.492632614135744 10.96113070678711,11.764232614135743 C11.792230706787109,12.786232614135741 12.828830706787109,13.62223261413574 14.003630706787106,14.218232614135744 C15.178430706787111,14.81423261413574 16.46523070678711,15.156832614135745 17.780830706787114,15.223932614135741 C17.613630706787106,14.514032614135743 17.68563070678711,13.76863261413574 17.985630706787106,13.10383261413574 C18.28563070678711,12.43903261413574 18.79693070678711,11.891932614135742 19.440030706787113,11.547632614135741 C20.083030706787113,11.203432614135743 20.82183070678711,11.081232614135743 21.54143070678711,11.200132614135741 C22.26103070678711,11.319032614135741 22.921230706787114,11.672332614135742 23.419330706787107,12.205232614135742 C24.159930706787108,12.058732614135742 24.870030706787105,11.787032614135743 25.519330706787116,11.401932614135742 C25.27253070678711,12.168732614135742 24.75583070678711,12.819732614135741 24.0651307067871,13.234232614135742 C24.721130706787108,13.155232614135741 25.36163070678711,12.97883261413574 25.96563070678711,12.710932614135743 C25.521930706787117,13.375732614135742 24.963130706787112,13.95593261413574 24.31533070678711,14.424232614135743 z" fill="white" id="svg_2" class=""/></g></svg>