<svg xmlns="http://www.w3.org/2000/svg" width="34" height="35" fill="none"><rect id="backgroundrect" width="100%" height="100%" x="0" y="0" fill="none" stroke="none"/>


<g class="currentLayer" style=""><title>Layer 1</title><circle cx="17.244897742777994" cy="17.2988685173691" r="14.187654495239258" fill="#F53838" id="svg_1" class=""/><path d="M22.331632405519485,17.543865310227872 C22.331632405519485,18.93626531022787 21.77843240551948,20.27156531022787 20.793932405519485,21.25616531022787 C19.809332405519484,22.24066531022787 18.473932405519484,22.793865310227872 17.081632405519485,22.793865310227872 C15.689232405519483,22.793865310227872 14.353832405519483,22.24066531022787 13.369232405519483,21.25616531022787 C12.384732405519486,20.27156531022787 11.831632405519485,18.93626531022787 11.831632405519485,17.543865310227872 C11.831632405519485,17.24456531022787 11.863132405519487,16.952365310227872 11.917332405519495,16.668865310227872 H10.081582405519484 V23.66356531022787 C10.081582405519484,24.15006531022787 10.475332405519488,24.543865310227872 10.961832405519488,24.543865310227872 H23.203132405519483 C23.43623240551949,24.54336531022787 23.659732405519485,24.45046531022787 23.824432405519488,24.28536531022787 C23.989132405519484,24.12036531022787 24.081632405519485,23.89676531022787 24.081632405519485,23.66356531022787 V16.668865310227872 H22.245832405519486 C22.300132405519484,16.952365310227872 22.331632405519485,17.24456531022787 22.331632405519485,17.543865310227872 zM17.081632405519485,21.043865310227872 C17.541332405519483,21.043765310227872 17.99653240551949,20.95306531022787 18.42123240551949,20.776965310227872 C18.845932405519484,20.60096531022787 19.231832405519484,20.34296531022787 19.556832405519486,20.017865310227872 C19.88183240551949,19.69266531022787 20.139632405519485,19.30666531022787 20.315432405519488,18.88186531022787 C20.491232405519483,18.457065310227872 20.58173240551949,18.00186531022787 20.581632405519485,17.542065310227873 C20.581432405519486,17.08236531022787 20.490832405519484,16.62716531022787 20.314732405519486,16.202465310227872 C20.138732405519484,15.77776531022787 19.88073240551948,15.391865310227871 19.55563240551949,15.066865310227872 C19.230432405519487,14.741865310227872 18.844432405519484,14.484065310227871 18.419632405519486,14.30826531022787 C17.99483240551949,14.132365310227872 17.53953240551948,14.041965310227871 17.079832405519483,14.042065310227871 C16.151332405519483,14.04236531022787 15.260932405519483,14.411365310227872 14.604632405519482,15.068065310227873 C13.948232405519484,15.724765310227873 13.579632405519483,16.615365310227872 13.579832405519483,17.543865310227872 C13.58003240551949,18.47236531022787 13.949132405519485,19.36266531022787 14.605832405519486,20.01906531022787 C15.262532405519487,20.67546531022787 16.153132405519486,21.04406531022787 17.081632405519485,21.043865310227872 zM21.28163240551949,13.868865310227871 H23.379832405519487 C23.51923240551949,13.868865310227871 23.652932405519486,13.81356531022787 23.75173240551949,13.71516531022787 C23.850432405519484,13.616765310227871 23.906132405519486,13.483265310227871 23.90663240551949,13.343865310227871 V11.245565310227871 C23.90663240551949,11.105865310227871 23.851132405519486,10.971865310227871 23.752332405519482,10.87306531022787 C23.653532405519485,10.774365310227871 23.519532405519485,10.718865310227871 23.379832405519487,10.718865310227871 H21.28163240551949 C21.141932405519483,10.718865310227871 21.007932405519483,10.774365310227871 20.909132405519486,10.87306531022787 C20.81033240551949,10.971865310227871 20.754832405519487,11.105865310227871 20.754832405519487,11.245565310227871 V13.343865310227871 C20.756632405519483,13.632565310227871 20.992832405519486,13.868865310227871 21.28163240551949,13.868865310227871 zM17.081632405519485,0.7438313102278711 C12.625932405519485,0.7438313102278711 8.352802405519483,2.5138253102278716 5.202192405519483,5.664435310227871 C2.0515824055194862,8.815045310227871 0.28158340551948424,13.088165310227872 0.28158340551948424,17.543865310227872 C0.28158340551948424,21.999465310227873 2.0515824055194862,26.27266531022787 5.202192405519483,29.423265310227873 C8.352802405519483,32.57386531022787 12.625932405519485,34.34386531022787 17.081632405519485,34.34386531022787 C19.28783240551948,34.34386531022787 21.472432405519484,33.90926531022787 23.510632405519488,33.06496531022787 C25.548932405519487,32.22076531022787 27.400932405519484,30.98326531022787 28.96103240551949,29.423265310227873 C30.521032405519485,27.86316531022787 31.75853240551949,26.01116531022787 32.60273240551948,23.97296531022787 C33.44703240551949,21.93466531022787 33.88163240551948,19.75006531022787 33.88163240551948,17.543865310227872 C33.88163240551948,15.33766531022787 33.44703240551949,13.153065310227872 32.60273240551948,11.11476531022787 C31.75853240551949,9.076485310227872 30.521032405519485,7.22446531022787 28.96103240551949,5.664435310227871 C27.400932405519484,4.104415310227871 25.548932405519487,2.8669353102278716 23.510632405519488,2.0226553102278713 C21.472432405519484,1.178375310227871 19.28783240551948,0.7438313102278711 17.081632405519485,0.7438313102278711 zM25.831632405519485,24.34956531022787 C25.831632405519485,25.418865310227872 24.956632405519485,26.293865310227872 23.887332405519487,26.293865310227872 H10.275832405519488 C9.206582405519484,26.293865310227872 8.331582405519484,25.418865310227872 8.331582405519484,24.34956531022787 V10.73806531022787 C8.331582405519484,9.668835310227871 9.206582405519484,8.793835310227871 10.275832405519488,8.793835310227871 H23.887332405519487 C24.956632405519485,8.793835310227871 25.831632405519485,9.668835310227871 25.831632405519485,10.73806531022787 V24.34956531022787 z" fill="white" id="svg_2" class=""/></g></svg>